<mxfile host="app.diagrams.net" modified="2023-04-12T04:36:54.356Z" agent="Mozilla/5.0 (Windows NT 10.0; Win64; x64) AppleWebKit/537.36 (KHTML, like Gecko) Chrome/112.0.0.0 Safari/537.36 Edg/112.0.1722.39" version="21.1.6" etag="sE6Aey4wq2tlXZFx8dxD" type="github">
  <diagram name="Page-1" id="_PW14F6-t7i4NTx8TF8V">
    <mxGraphModel>
      <root>
        <mxCell id="0" />
        <mxCell id="1" parent="0" />
      </root>
    </mxGraphModel>
  </diagram>
</mxfile>
